solid EB14
facet normal -1.393899765389506e-06 -1 -2.608175464047235e-06
  outer loop
    vertex -43.64023590087891 -96.15931701660156 23.698974609375
    vertex -1.296289443969727 -96.15931701660156 1.068895936012268
    vertex -1.296298742294312 -96.15937805175781 23.698974609375
  endloop
endfacet
facet normal -1 9.657515676053663e-08 -2.070725599878642e-07
  outer loop
    vertex -1.296298742294312 -96.15937805175781 23.698974609375
    vertex -1.296296238899231 -118.1593170166016 1.068870902061462
    vertex -1.296296358108521 -118.1593704223633 23.69897079467773
  endloop
endfacet
facet normal -1 9.657515676053663e-08 -2.070725599878642e-07
  outer loop
    vertex -1.296296238899231 -118.1593170166016 1.068870902061462
    vertex -1.296298742294312 -96.15937805175781 23.698974609375
    vertex -1.296289443969727 -96.15931701660156 1.068895936012268
  endloop
endfacet
facet normal -5.927324764343211e-08 1.140709500191406e-07 -1
  outer loop
    vertex -43.64023590087891 -96.15931701660156 23.698974609375
    vertex -1.296296358108521 -118.1593704223633 23.69897079467773
    vertex -43.64029693603516 -118.1593170166016 23.698974609375
  endloop
endfacet
facet normal -5.927324764343211e-08 1.140709500191406e-07 -1
  outer loop
    vertex -1.296296358108521 -118.1593704223633 23.69897079467773
    vertex -43.64023590087891 -96.15931701660156 23.698974609375
    vertex -1.296298742294312 -96.15937805175781 23.698974609375
  endloop
endfacet
facet normal -1.280711217077624e-06 -1 0
  outer loop
    vertex -47.38256454467773 -120.1593170166016 25.69897079467773
    vertex 0.7037011384963989 -120.1593780517578 0
    vertex 0.7037011384963989 -120.1593780517578 25.69897079467773
  endloop
endfacet
facet normal 1 -1.031693983577497e-07 1.509284379824801e-24
  outer loop
    vertex 0.7037038207054138 -94.15937805175781 5.019118361815345e-06
    vertex 0.7037011384963989 -120.1593780517578 25.69897079467773
    vertex 0.7037011384963989 -120.1593780517578 0
  endloop
endfacet
facet normal 1 -1.031693983577497e-07 1.509284379824801e-24
  outer loop
    vertex 0.7037011384963989 -120.1593780517578 25.69897079467773
    vertex 0.7037038207054138 -94.15937805175781 5.019118361815345e-06
    vertex 0.7037038207054138 -94.15937805175781 25.698974609375
  endloop
endfacet
facet normal 1.280711671824974e-06 1 2.396385525571532e-06
  outer loop
    vertex -43.64029693603516 -118.1593170166016 23.698974609375
    vertex -1.296296358108521 -118.1593704223633 23.69897079467773
    vertex -1.296296238899231 -118.1593170166016 1.068870902061462
  endloop
endfacet
facet normal 1.280711217077624e-06 1 0
  outer loop
    vertex -47.38256072998047 -94.15931701660156 25.698974609375
    vertex 0.7037038207054138 -94.15937805175781 25.698974609375
    vertex 0.7037038207054138 -94.15937805175781 5.019118361815345e-06
  endloop
endfacet
facet normal 6.180726069837661e-12 -1.930430499896829e-07 1
  outer loop
    vertex 0.7037011384963989 -120.1593780517578 25.69897079467773
    vertex -47.38256072998047 -94.15931701660156 25.698974609375
    vertex -47.38256454467773 -120.1593170166016 25.69897079467773
  endloop
endfacet
facet normal 6.180726069837661e-12 -1.930430499896829e-07 1
  outer loop
    vertex -47.38256072998047 -94.15931701660156 25.698974609375
    vertex 0.7037011384963989 -120.1593780517578 25.69897079467773
    vertex 0.7037038207054138 -94.15937805175781 25.698974609375
  endloop
endfacet
facet normal -0.4713443219661713 6.196343065312249e-07 -0.8819493055343628
  outer loop
    vertex -47.38256072998047 -94.15931701660156 25.698974609375
    vertex -43.64023590087891 -96.15931701660156 23.698974609375
    vertex -43.64029693603516 -118.1593170166016 23.698974609375
  endloop
endfacet
facet normal -0.4713443219661713 6.196343065312249e-07 -0.8819493055343628
  outer loop
    vertex -43.64023590087891 -96.15931701660156 23.698974609375
    vertex -47.38256072998047 -94.15931701660156 25.698974609375
    vertex 0.7037038207054138 -94.15937805175781 5.019118361815345e-06
  endloop
endfacet
facet normal -0.4713443219661713 6.196343065312249e-07 -0.8819493055343628
  outer loop
    vertex -43.64023590087891 -96.15931701660156 23.698974609375
    vertex 0.7037038207054138 -94.15937805175781 5.019118361815345e-06
    vertex -1.296289443969727 -96.15931701660156 1.068895936012268
  endloop
endfacet
facet normal -0.4713443219661713 6.196343065312249e-07 -0.8819493055343628
  outer loop
    vertex -1.296289443969727 -96.15931701660156 1.068895936012268
    vertex 0.7037038207054138 -94.15937805175781 5.019118361815345e-06
    vertex 0.7037011384963989 -120.1593780517578 0
  endloop
endfacet
facet normal -0.4713443219661713 6.196343065312249e-07 -0.8819493055343628
  outer loop
    vertex -47.38256454467773 -120.1593170166016 25.69897079467773
    vertex -43.64029693603516 -118.1593170166016 23.698974609375
    vertex 0.7037011384963989 -120.1593780517578 0
  endloop
endfacet
facet normal -0.4713443219661713 6.196343065312249e-07 -0.8819493055343628
  outer loop
    vertex -43.64029693603516 -118.1593170166016 23.698974609375
    vertex -47.38256454467773 -120.1593170166016 25.69897079467773
    vertex -47.38256072998047 -94.15931701660156 25.698974609375
  endloop
endfacet
facet normal -0.4713443219661713 6.196343065312249e-07 -0.8819493055343628
  outer loop
    vertex 0.7037011384963989 -120.1593780517578 0
    vertex -43.64029693603516 -118.1593170166016 23.698974609375
    vertex -1.296296238899231 -118.1593170166016 1.068870902061462
  endloop
endfacet
facet normal -0.4713443219661713 6.196343065312249e-07 -0.8819493055343628
  outer loop
    vertex 0.7037011384963989 -120.1593780517578 0
    vertex -1.296296238899231 -118.1593170166016 1.068870902061462
    vertex -1.296289443969727 -96.15931701660156 1.068895936012268
  endloop
endfacet
endsolid EB14
